<?xml version="1.0" encoding="UTF-8" standalone="no"?>
<svg
   xmlns:dc="http://purl.org/dc/elements/1.1/"
   xmlns:cc="http://creativecommons.org/ns#"
   xmlns:rdf="http://www.w3.org/1999/02/22-rdf-syntax-ns#"
   xmlns:svg="http://www.w3.org/2000/svg"
   xmlns="http://www.w3.org/2000/svg"
   xmlns:sodipodi="http://sodipodi.sourceforge.net/DTD/sodipodi-0.dtd"
   xmlns:inkscape="http://www.inkscape.org/namespaces/inkscape"
   version="1.0"
   x="0px"
   y="0px"
   viewBox="0 0 25.772 25.598"
   style="enable-background:new 0 0 25.772 25.598;"
   xml:space="preserve"
   id="svg2"
   inkscape:version="0.48.3.1 r9886"
   width="100%"
   height="100%"
   sodipodi:docname="approved.svg"><metadata
     id="metadata10"><rdf:RDF><cc:Work
         rdf:about=""><dc:format>image/svg+xml</dc:format><dc:type
           rdf:resource="http://purl.org/dc/dcmitype/StillImage" /><dc:title></dc:title></cc:Work></rdf:RDF></metadata><defs
     id="defs8" /><sodipodi:namedview
     pagecolor="#ffffff"
     bordercolor="#666666"
     borderopacity="1"
     objecttolerance="10"
     gridtolerance="10"
     guidetolerance="10"
     inkscape:pageopacity="0"
     inkscape:pageshadow="2"
     inkscape:window-width="1301"
     inkscape:window-height="744"
     id="namedview6"
     showgrid="false"
     inkscape:zoom="9.2194703"
     inkscape:cx="12.886"
     inkscape:cy="12.799"
     inkscape:window-x="65"
     inkscape:window-y="24"
     inkscape:window-maximized="1"
     inkscape:current-layer="svg2" /><path
     d="M25.646,13.653l-1.519-2.396l0.901-2.689c0.122-0.367-0.03-0.77-0.365-0.962l-2.458-1.417l-0.452-2.8  c-0.063-0.382-0.385-0.667-0.771-0.683l-2.835-0.111l-1.701-2.27c-0.232-0.31-0.652-0.413-0.999-0.246l-2.561,1.218l-2.562-1.219  C9.976-0.087,9.558,0.016,9.325,0.325l-1.701,2.27L4.789,2.706c-0.385,0.015-0.708,0.3-0.77,0.682l-0.452,2.8L1.109,7.605  C0.774,7.797,0.621,8.2,0.743,8.567l0.901,2.689l-1.518,2.397c-0.207,0.327-0.154,0.754,0.125,1.022l2.047,1.963l-0.23,2.826  c-0.031,0.387,0.213,0.74,0.584,0.848l2.725,0.785l1.109,2.611c0.152,0.355,0.533,0.561,0.911,0.479l2.78-0.57l2.194,1.797  c0.149,0.121,0.332,0.184,0.515,0.184c0.183,0,0.365-0.063,0.515-0.184l2.194-1.797l2.78,0.57c0.377,0.08,0.76-0.123,0.911-0.479  l1.109-2.611l2.725-0.785c0.371-0.107,0.615-0.461,0.584-0.848l-0.23-2.826l2.047-1.963C25.8,14.407,25.853,13.98,25.646,13.653z   M18.763,9.742l-5.691,8.526c-0.215,0.318-0.548,0.531-0.879,0.531c-0.33,0-0.699-0.185-0.934-0.421l-4.178-4.245  c-0.285-0.29-0.285-0.76,0-1.05l1.031-1.05c0.285-0.286,0.748-0.286,1.031,0l2.719,2.762l4.484-6.718  c0.225-0.339,0.682-0.425,1.014-0.196l1.209,0.831C18.902,8.942,18.988,9.405,18.763,9.742L18.763,9.742z"
     id="path4"
     style="fill:#ff4f00;fill-opacity:1"
     inkscape:export-filename="/home/caiosba/Meedan/bridgembed/public/images/approved.png"
     inkscape:export-xdpi="55.880001"
     inkscape:export-ydpi="55.880001" /></svg>